<?xml version="1.0" standalone="no"?>
<!DOCTYPE svg PUBLIC "-//W3C//DTD SVG 20010904//EN"
 "http://www.w3.org/TR/2001/REC-SVG-20010904/DTD/svg10.dtd">
<svg version="1.0" xmlns="http://www.w3.org/2000/svg"
 width="2000.000000pt" height="2000.000000pt" viewBox="0 0 2000.000000 2000.000000"
 preserveAspectRatio="xMidYMid meet">
<metadata>
Created by potrace 1.11, written by Peter Selinger 2001-2013
</metadata>
<g transform="translate(0.000000,2000.000000) scale(0.100000,-0.100000)"
fill="#000000" stroke="none">
<path d="M1600 19989 c-323 -37 -658 -174 -909 -372 -391 -310 -632 -750 -681
-1242 -8 -79 -10 -2473 -8 -8445 3 -8074 4 -8338 22 -8430 86 -443 295 -806
621 -1078 275 -231 609 -372 967 -411 138 -15 16640 -15 16776 0 469 51 891
276 1190 634 231 275 372 609 411 967 15 138 15 16640 0 16776 -51 469 -276
891 -634 1190 -275 231 -609 372 -967 411 -119 13 -16673 13 -16788 0z m6610
-6489 l0 -780 -1790 0 -1790 0 0 -1020 0 -1020 1370 0 1370 0 0 -750 0 -750
-1370 0 -1370 0 0 -1040 0 -1040 1790 0 1790 0 0 -780 0 -780 -2810 0 -2810 0
0 4370 0 4370 2810 0 2810 0 0 -780z m2620 756 c113 -37 185 -84 277 -180 48
-50 1024 -1273 2168 -2718 1144 -1445 2081 -2626 2083 -2624 1 2 -4 70 -13
152 -33 325 -35 525 -35 2957 l0 2437 895 0 895 0 0 -4370 0 -4370 -574 0
c-358 0 -604 4 -652 11 -180 25 -316 93 -446 223 -37 37 -1000 1246 -2139
2687 -1139 1441 -2073 2619 -2074 2617 -2 -2 1 -41 5 -88 26 -257 30 -629 30
-2982 l0 -2468 -895 0 -895 0 0 4371 0 4370 658 -3 c601 -3 662 -5 712 -22z"/>
</g>
</svg>
